<svg xmlns="http://www.w3.org/2000/svg" viewBox="0 0 64 64" role="img" aria-labelledby="title">
  <title id="title">FigFox</title>
  <path fill="#20152b" d="M9 9.8 27.6 23.9 39.2 26.6c-9.1 1.1-20.1 3.6-30.2 8.2V9.8Z"/>
  <path fill="#20152b" d="m28.8 22.7 11-11.3v13.8l-11-2.5Z"/>
  <path fill="#20152b" d="M43.4 29.5c8.8 1.1 12.7-2.8 14.7-6.8 4.2 13.2-.1 25.8-9.2 32.5-9.7 7.1-25.8 4.6-37.8-2.9 2.4-7.3 8.7-13.3 18.3-16.2-7.9 1.3-14.5 5.6-18.6 12 1.3-10.2 11.8-16.9 23.6-17 3.5 0 6.4-.4 9-1.6Z"/>
</svg>

